<?xml version="1.0" standalone="no"?>
<!DOCTYPE svg PUBLIC "-//W3C//DTD SVG 20010904//EN"
 "http://www.w3.org/TR/2001/REC-SVG-20010904/DTD/svg10.dtd">
<svg version="1.0" xmlns="http://www.w3.org/2000/svg"
 width="366.000000pt" height="366.000000pt" viewBox="0 0 366.000000 366.000000"
 preserveAspectRatio="xMidYMid meet">
<metadata>
Created by potrace 1.11, written by Peter Selinger 2001-2013
</metadata>
<g transform="translate(0.000000,366.000000) scale(0.100000,-0.100000)"
fill="#000000" stroke="none">
<path d="M3146 3222 c-2 -4 -7 -23 -11 -42 -12 -59 -84 -275 -98 -294 -12 -16
-18 -17 -89 -3 -195 37 -430 -3 -578 -99 -25 -15 -65 -39 -90 -52 -181 -97
-311 -267 -368 -482 -23 -85 -26 -104 -47 -257 -3 -21 -7 -49 -10 -63 -3 -14
-7 -41 -9 -60 -3 -19 -8 -57 -13 -85 -4 -27 -8 -99 -8 -160 0 -91 4 -121 24
-175 75 -203 221 -293 466 -285 123 3 215 28 338 91 l69 35 -7 -43 c-29 -187
-89 -261 -250 -310 -125 -39 -419 -24 -567 28 -40 14 -44 11 -52 -27 -2 -13
-18 -82 -35 -153 -17 -71 -33 -141 -36 -155 -3 -14 -9 -42 -15 -61 -15 -50
-13 -56 18 -69 130 -52 454 -80 681 -57 408 40 681 250 794 611 22 71 42 169
62 310 3 22 12 83 20 135 8 52 17 113 20 135 2 22 7 51 9 65 6 30 13 78 22
145 3 28 8 59 10 70 2 11 7 40 10 65 3 25 8 52 9 62 2 9 7 38 11 65 3 26 9 57
11 68 3 11 7 79 10 152 5 114 2 141 -15 200 -24 79 -63 143 -115 192 l-36 35
42 45 c54 58 124 157 172 245 30 53 35 70 25 76 -8 5 -64 22 -124 39 -61 17
-141 39 -178 50 -37 11 -70 16 -72 13z m-338 -877 l43 -6 -6 -47 c-7 -54 -13
-96 -20 -132 -3 -14 -7 -47 -10 -75 -4 -27 -8 -57 -10 -65 -3 -8 -7 -35 -10
-60 -3 -25 -10 -70 -15 -100 -5 -30 -11 -75 -14 -99 -7 -50 -19 -62 -94 -91
-141 -54 -234 2 -224 135 1 17 9 73 17 125 8 52 17 118 20 145 18 137 51 209
114 249 53 34 89 37 209 21z"/>
<path d="M1280 2885 c-110 -25 -244 -83 -336 -146 -38 -26 -44 -28 -45 -12 -1
20 -6 61 -14 111 l-6 32 -183 0 c-154 0 -185 -2 -190 -15 -3 -8 -3 -22 0 -30
5 -11 -8 -15 -67 -17 -63 -3 -73 -5 -75 -23 -2 -11 -8 -54 -14 -95 -6 -41 -12
-86 -15 -100 -7 -46 -16 -105 -20 -135 -3 -16 -10 -64 -16 -105 -7 -41 -13
-84 -14 -95 -2 -11 -6 -33 -8 -50 -3 -16 -9 -55 -12 -85 -4 -30 -9 -64 -11
-75 -2 -10 -6 -37 -9 -60 -13 -89 -25 -166 -30 -195 -2 -8 -6 -37 -9 -65 -4
-27 -16 -106 -27 -174 -11 -69 -22 -143 -25 -165 -2 -23 -9 -68 -14 -101 -6
-33 -10 -68 -10 -77 0 -16 25 -17 300 -17 335 1 304 -7 315 79 3 25 8 52 10
60 2 8 7 38 10 65 3 28 9 75 15 105 5 30 12 73 15 95 3 22 8 51 10 65 2 14 11
72 19 130 9 58 23 150 31 205 9 55 17 114 19 130 12 96 18 114 50 133 118 69
238 71 265 4 17 -43 16 -73 -4 -192 -2 -14 -7 -45 -10 -70 -4 -25 -8 -56 -10
-70 -12 -73 -25 -160 -30 -195 -3 -22 -10 -65 -15 -95 -11 -70 -21 -130 -24
-155 -2 -11 -7 -45 -11 -75 -4 -30 -9 -63 -11 -74 -2 -10 -6 -44 -10 -75 -3
-31 -8 -59 -10 -63 -3 -4 133 -7 300 -7 l304 0 7 42 c4 23 8 49 10 57 1 8 6
37 9 63 4 27 9 56 11 65 4 20 25 165 30 201 2 14 9 58 15 96 6 39 13 86 15
105 3 19 23 152 45 295 47 297 52 372 34 466 -28 146 -109 244 -240 290 -77
27 -226 34 -314 14z"/>
</g>
</svg>
